<?xml version="1.0" standalone="no"?>
<!DOCTYPE svg PUBLIC "-//W3C//DTD SVG 20010904//EN"
 "http://www.w3.org/TR/2001/REC-SVG-20010904/DTD/svg10.dtd">
<svg version="1.0" xmlns="http://www.w3.org/2000/svg"
 width="3626.000000pt" height="3989.000000pt" viewBox="0 0 3626.000000 3989.000000"
 preserveAspectRatio="xMidYMid meet">

<g transform="translate(0.000000,3989.000000) scale(0.100000,-0.100000)"
fill="#000000" stroke="none">
<path d="M21414 26486 c-4 -11 -8 -38 -8 -60 l-1 -39 65 -13 c65 -12 126 -32
103 -33 -7 -1 -13 -11 -14 -23 0 -13 -3 -17 -6 -10 -4 10 -11 8 -29 -9 -13
-12 -24 -27 -24 -33 -1 -6 -14 -26 -30 -45 -25 -29 -33 -33 -67 -29 -56 7
-223 -9 -239 -23 -8 -6 -14 -21 -15 -33 0 -20 -1 -21 -9 -1 -8 19 -9 19 -9 -2
-1 -21 -21 -44 -21 -24 0 6 -7 8 -15 5 -8 -4 -15 -14 -15 -24 0 -23 -16 -35
-23 -18 -3 7 -6 3 -6 -8 -1 -22 -1 -22 87 6 282 90 594 121 815 80 33 -6 61
-9 63 -7 7 7 -160 128 -256 187 -74 45 -280 150 -295 150 -3 0 -5 -10 -6 -22
-1 -22 -1 -22 -9 2 -4 14 -9 21 -10 15 -1 -5 -5 -1 -10 10 -8 20 -8 20 -16 1z"/>
<path d="M20435 26076 l-30 -24 43 -13 c24 -7 52 -24 63 -37 l19 -25 0 62 0
61 -32 0 c-20 0 -45 -10 -63 -24z"/>
<path d="M20497 25867 c-31 -32 -19 -32 -195 -7 l-82 12 -39 -33 c-22 -19 -40
-41 -40 -50 -1 -9 -8 -22 -16 -29 -8 -7 -15 -25 -15 -41 0 -15 -4 -39 -9 -52
-14 -36 -164 -152 -255 -198 -111 -55 -205 -129 -166 -129 13 0 40 -54 40 -80
0 -34 -26 -75 -57 -89 -15 -7 -68 -16 -118 -19 -88 -5 -90 -6 -147 -51 -32
-26 -57 -55 -58 -66 -1 -26 -60 -75 -60 -50 0 13 -7 11 -35 -11 -19 -14 -35
-35 -35 -45 0 -10 -4 -21 -10 -24 -5 -3 -10 -16 -10 -28 0 -35 -44 -119 -84
-160 -48 -48 -126 -93 -190 -108 -59 -14 -106 -45 -106 -70 0 -10 -16 -31 -35
-46 -19 -15 -35 -35 -35 -44 0 -15 -39 -59 -53 -59 -4 0 -7 11 -7 25 0 23 -2
24 -20 15 -11 -6 -20 -19 -20 -30 0 -10 -10 -27 -23 -37 -13 -10 -31 -39 -39
-65 -19 -55 -73 -141 -125 -199 -61 -67 -189 -166 -282 -217 -106 -58 -187
-134 -196 -186 -20 -102 83 -254 283 -420 83 -68 102 -91 102 -120 0 -23 -74
-96 -98 -96 -34 0 -167 97 -261 189 -91 90 -158 180 -191 256 -11 25 -23 45
-28 45 -5 0 -18 -10 -30 -23 -21 -23 -21 -25 -7 -83 47 -182 174 -326 375
-427 47 -23 87 -43 89 -44 6 -3 -92 -119 -111 -132 -32 -20 -176 57 -302 163
-91 76 -169 193 -234 346 -9 22 -11 23 -11 4 -1 -29 -59 -83 -70 -65 -18 29
-20 -9 -2 -60 85 -248 272 -447 501 -532 129 -49 213 -62 390 -62 91 0 173 3
182 7 15 6 14 14 -13 88 -238 654 269 1681 1241 2511 186 159 322 261 544 410
l210 141 -3 51 c-1 29 -3 52 -4 52 -1 0 -15 -12 -30 -28z m-2086 -2046 c44
-45 41 -96 -11 -156 -44 -50 -58 -89 -43 -114 6 -9 30 -29 53 -46 52 -37 71
-76 58 -122 -9 -34 -49 -63 -88 -63 -54 0 -167 85 -201 152 -25 49 -28 148 -5
202 23 55 84 135 120 157 45 27 82 24 117 -10z"/>
<path d="M22912 24602 c-27 -164 -57 -305 -108 -498 -35 -131 -39 -142 -66
-152 -21 -8 -28 -17 -28 -36 0 -16 -6 -26 -15 -26 -8 0 -15 7 -15 15 0 8 -4
15 -9 15 -6 0 -11 -21 -13 -47 -3 -46 -28 -76 -28 -33 0 12 -4 18 -10 15 -20
-12 -9 -34 28 -56 90 -54 208 -169 276 -269 l38 -55 -6 43 c-6 43 -2 54 37 90
9 9 17 22 17 29 0 13 59 123 65 123 2 0 18 -43 35 -95 62 -194 64 -358 5 -495
-15 -36 -29 -78 -32 -95 l-4 -30 15 25 c8 14 17 24 21 22 4 -2 28 32 53 75
l47 78 0 215 c-1 228 -4 259 -71 650 -62 363 -73 411 -110 490 -35 75 -78 140
-92 140 -5 0 -18 -62 -30 -138z"/>
<path d="M25990 24569 l1 -84 106 -60 c59 -33 133 -75 165 -93 l58 -34 0 80 0
80 -142 83 c-79 45 -153 89 -165 97 l-23 14 0 -83z"/>
<path d="M22306 23989 c-92 -72 -98 -269 -11 -356 51 -51 65 -45 65 27 0 35
-4 60 -10 60 -26 0 -60 50 -60 88 0 39 31 82 58 82 8 0 12 20 12 60 0 67 -9
74 -54 39z"/>
<path d="M22478 23622 c-32 -90 -126 -171 -199 -172 -15 0 -45 7 -69 15 -37
13 -45 13 -71 0 -17 -9 -29 -24 -29 -35 0 -14 -14 -26 -50 -41 -39 -17 -50
-26 -50 -44 0 -13 -7 -26 -16 -29 -23 -9 -24 -8 -24 14 0 13 -5 18 -15 14 -8
-4 -15 -17 -15 -30 0 -19 -10 -28 -50 -45 -46 -20 -50 -24 -50 -55 0 -18 5
-36 11 -40 23 -14 89 -128 108 -187 29 -90 35 -147 21 -213 -18 -87 -64 -168
-134 -240 -58 -60 -65 -64 -107 -64 -59 0 -94 33 -94 90 0 33 8 47 58 99 32
33 65 77 74 98 35 84 7 193 -73 281 l-39 43 -52 -23 c-43 -18 -53 -27 -54 -47
-2 -24 -2 -24 -6 -3 -6 30 -23 18 -23 -17 0 -24 6 -31 45 -45 86 -33 112 -110
56 -167 -42 -41 -84 -39 -188 12 -89 42 -96 43 -165 8 -25 -13 -38 -26 -38
-39 0 -13 -14 -27 -42 -41 -55 -28 -54 -26 -34 -48 26 -29 108 -60 176 -68 96
-10 143 -60 119 -130 -20 -62 -98 -78 -227 -48 -79 19 -153 56 -215 107 -45
37 -50 39 -77 28 -21 -9 -30 -19 -30 -35 0 -13 -9 -26 -24 -33 -14 -6 -26 -21
-28 -33 -4 -29 -26 -36 -30 -10 -2 14 -7 18 -16 12 -30 -18 73 -150 143 -182
23 -11 63 -19 93 -19 86 0 121 -28 122 -96 0 -31 -6 -46 -25 -64 -53 -50 -214
-33 -324 33 -59 36 -145 124 -169 173 -16 36 -42 36 -42 0 0 -12 -9 -27 -19
-33 -17 -11 -19 -8 -25 32 -9 56 9 224 36 340 23 100 56 193 118 335 64 144
63 142 41 130 -11 -5 -33 -10 -50 -10 -21 0 -31 -5 -31 -15 0 -8 -4 -15 -10
-15 -5 0 -38 -42 -72 -92 l-63 -93 -3 103 c-1 56 -5 102 -8 102 -3 0 -39 -15
-80 -34 -57 -27 -74 -39 -74 -55 0 -20 -28 -40 -77 -55 -19 -6 -23 -4 -23 14
0 20 -1 20 -30 5 -18 -9 -30 -23 -30 -35 0 -13 -12 -26 -35 -37 -24 -12 -35
-23 -35 -39 0 -12 -7 -24 -15 -28 -11 -4 -15 -21 -15 -64 0 -78 -42 -164 -112
-227 -64 -57 -192 -121 -283 -140 -74 -16 -230 -19 -306 -6 -57 9 -69 5 -69
-23 0 -15 -9 -27 -25 -34 -34 -16 -35 -15 -35 8 0 18 -3 18 -27 8 -16 -7 -33
-18 -40 -26 -10 -13 -22 -13 -75 -3 -139 27 -346 110 -458 183 l-35 23 24 -35
c13 -19 81 -91 151 -160 175 -174 320 -260 542 -324 132 -38 242 -49 413 -43
176 7 294 30 462 89 l117 41 101 -26 c142 -37 319 -58 464 -56 l124 2 96 -134
c154 -215 351 -468 416 -535 33 -34 99 -87 147 -118 76 -49 90 -55 109 -46 11
7 23 9 26 6 3 -3 25 6 50 21 24 14 47 23 50 19 3 -3 13 -1 20 6 12 9 -3 15
-69 29 -127 25 -265 94 -364 182 l-35 30 38 21 c21 12 76 36 121 55 82 33 85
34 113 17 92 -54 229 -80 354 -66 180 21 285 100 324 247 21 77 106 122 169
89 l30 -16 25 43 c42 73 67 126 67 144 0 20 -90 185 -124 228 -21 26 -26 28
-49 18 l-25 -12 16 29 c9 16 20 26 24 24 4 -3 13 7 20 20 7 14 18 25 23 25 6
0 11 8 13 18 2 10 8 32 15 48 l12 30 6 -30 6 -30 7 30 c10 41 28 75 36 70 10
-6 50 69 50 94 0 14 -6 21 -18 21 -11 0 -38 14 -61 30 -67 49 -107 65 -124 51
-8 -6 -32 -58 -53 -114 -69 -187 -115 -262 -192 -314 -54 -37 -134 -67 -206
-78 -45 -6 -49 -5 -37 9 8 9 21 30 30 46 47 86 87 149 117 182 18 21 44 59 58
86 40 78 92 162 98 157 3 -3 11 9 18 27 26 70 31 80 37 74 4 -4 21 19 39 50
18 31 38 60 46 65 18 12 85 11 133 -2 64 -17 181 -94 195 -129 l12 -29 25 49
c14 28 29 48 34 44 5 -3 9 30 9 76 l0 80 -42 -21 c-24 -12 -70 -24 -104 -27
-57 -4 -65 -2 -88 21 -19 19 -26 37 -26 64 0 54 22 79 83 97 28 8 73 29 100
46 53 34 53 32 13 146 -36 99 -96 195 -165 265 -59 59 -160 129 -186 129 -6 0
-18 -21 -27 -48z m-281 -1864 c-8 -58 -52 -98 -108 -98 -39 0 -99 23 -99 38 0
9 180 101 199 102 10 0 12 -10 8 -42z"/>
<path d="M2450 23171 c0 -30 2 -31 41 -31 47 0 44 11 -10 43 l-31 18 0 -30z"/>
<path d="M2450 23080 c0 -18 7 -20 71 -20 61 0 70 2 65 16 -3 9 -6 18 -6 20 0
2 -29 4 -65 4 -58 0 -65 -2 -65 -20z"/>
<path d="M15006 22920 l-46 -70 268 0 267 0 100 -64 c284 -182 687 -436 691
-436 2 0 4 37 4 83 l0 82 -83 51 c-45 28 -215 135 -378 238 l-296 186 -240 0
-240 0 -47 -70z"/>
<path d="M25125 22769 c-165 -105 -511 -324 -770 -486 -258 -163 -499 -315
-535 -338 -102 -66 -1256 -792 -1393 -877 l-59 -36 73 -43 c69 -41 73 -42 98
-27 14 8 166 104 336 213 365 233 779 496 920 585 55 35 105 63 110 63 6 0 78
-43 160 -95 1111 -703 1409 -888 1431 -888 15 0 91 45 192 113 92 63 303 204
469 315 l303 202 -37 53 c-20 28 -38 54 -40 56 -1 2 -201 -128 -443 -289 -292
-194 -445 -290 -456 -286 -9 3 -337 209 -730 457 l-715 452 48 31 c26 18 144
93 261 167 117 74 248 157 291 184 44 28 257 162 474 300 l395 249 -39 58
c-22 32 -41 58 -42 57 -1 0 -137 -86 -302 -190z"/>
<path d="M16300 22291 c0 -30 4 -41 15 -41 8 0 15 -9 15 -20 0 -13 7 -20 20
-20 13 0 20 -7 20 -20 0 -17 7 -20 45 -20 38 0 45 -3 45 -20 0 -17 7 -20 40
-20 33 0 40 -3 40 -20 0 -13 7 -20 20 -20 15 0 20 -7 20 -25 0 -23 4 -25 45
-25 38 0 45 -3 45 -20 0 -17 7 -20 40 -20 33 0 40 -3 40 -20 0 -13 7 -20 20
-20 13 0 20 -7 20 -20 0 -13 7 -20 20 -20 17 0 20 -7 20 -45 l0 -45 61 38 c33
22 59 43 58 48 -3 7 -431 282 -611 393 l-38 23 0 -41z"/>
<path d="M16790 21825 c0 -9 6 -12 15 -9 8 4 15 10 15 15 0 5 -7 9 -15 9 -8 0
-15 -7 -15 -15z"/>
<path d="M14233 21770 c-18 -27 -33 -54 -33 -58 0 -5 290 -203 644 -440 441
-296 653 -432 671 -432 17 0 156 82 393 231 202 128 371 235 376 239 8 8 13
156 5 164 -2 3 -175 -103 -383 -235 -209 -131 -383 -239 -388 -239 -5 0 -284
183 -621 406 -337 224 -616 408 -622 410 -5 2 -25 -19 -42 -46z"/>
<path d="M17020 21771 c-41 -28 -80 -55 -87 -60 -7 -6 -15 -11 -18 -11 -3 0
-38 -21 -78 -46 -95 -62 -109 -71 -339 -215 -191 -120 -198 -125 -198 -156 0
-23 5 -33 15 -33 8 0 15 9 15 20 0 13 7 20 20 20 15 0 20 7 20 25 0 23 4 25
45 25 38 0 45 3 45 20 0 13 7 20 20 20 13 0 20 7 20 20 0 17 7 20 40 20 33 0
40 3 40 20 0 13 7 20 20 20 13 0 20 7 20 20 0 15 7 20 25 20 18 0 25 5 25 20
0 17 7 20 40 20 36 0 40 3 40 25 0 22 4 25 35 25 28 0 35 4 35 20 0 15 7 20
25 20 18 0 25 5 25 20 0 17 7 20 40 20 33 0 40 3 40 20 0 15 7 20 25 20 18 0
25 5 25 20 0 18 7 20 85 20 78 0 85 -2 85 -20 0 -13 7 -20 20 -20 13 0 20 -7
20 -20 0 -17 7 -20 40 -20 33 0 40 -3 40 -20 0 -17 7 -20 40 -20 33 0 40 -3
40 -20 0 -17 7 -20 45 -20 41 0 45 -2 45 -25 0 -22 4 -25 40 -25 33 0 40 -3
40 -20 0 -13 7 -20 20 -20 13 0 20 -7 20 -20 0 -17 7 -20 45 -20 38 0 45 -3
45 -20 0 -16 7 -20 37 -20 l36 0 -44 29 c-87 57 -270 171 -275 171 -2 0 -26
15 -52 33 -83 58 -258 167 -268 167 -5 0 -43 -22 -84 -49z"/>
<path d="M22749 21672 c-43 -68 -53 -92 -43 -96 8 -3 29 8 46 24 17 16 35 27
39 24 15 -9 20 19 17 81 l-3 57 -56 -90z"/>
<path d="M17903 21472 c-17 -2 -23 -10 -23 -28 0 -21 -4 -24 -40 -24 -44 0
-55 -21 -21 -42 11 -6 17 -18 13 -26 -4 -12 0 -14 16 -10 19 5 22 2 22 -23 0
-24 4 -29 23 -28 16 1 18 2 5 6 -10 2 -18 13 -18 24 0 17 3 18 20 9 11 -6 20
-17 20 -25 0 -8 7 -15 16 -15 9 0 18 -9 21 -20 3 -11 14 -20 24 -20 12 0 19
-7 19 -20 0 -15 7 -20 25 -20 18 0 25 -5 25 -20 0 -17 7 -20 50 -20 39 0 53
-4 62 -20 7 -11 21 -20 30 -20 11 0 18 -8 18 -19 0 -15 8 -21 33 -23 22 -2 35
-10 42 -25 5 -13 17 -23 27 -23 9 0 18 -5 20 -11 2 -6 39 11 86 39 81 48 82
50 60 64 -44 29 -533 334 -543 339 -5 3 -20 3 -32 1z"/>
<path d="M17750 21395 c0 -8 9 -15 20 -15 13 0 20 -7 20 -20 0 -11 5 -20 10
-20 20 0 9 38 -15 54 -30 20 -35 20 -35 1z"/>
<path d="M18258 21043 c7 -3 16 -2 19 1 4 3 -2 6 -13 5 -11 0 -14 -3 -6 -6z"/>
<path d="M17000 20809 c0 -61 5 -85 25 -126 37 -73 13 -57 530 -346 l170 -95
3 66 c2 44 -1 69 -10 77 -7 7 -148 90 -313 185 -165 95 -315 187 -334 204 -18
17 -42 49 -52 71 l-19 40 0 -76z"/>
<path d="M24352 20642 c-23 -76 -44 -90 -864 -561 -26 -15 -28 -20 -28 -88 l0
-72 113 63 c376 212 684 389 712 410 48 37 75 104 82 202 3 46 4 84 1 84 -3 0
-10 -17 -16 -38z"/>
<path d="M13892 20557 c-35 -37 -28 -70 21 -110 23 -19 323 -226 667 -459 344
-234 704 -479 800 -545 l175 -120 65 40 c36 22 66 40 68 42 1 1 -59 44 -135
96 -76 51 -318 215 -538 364 -220 149 -492 334 -605 410 -113 76 -260 176
-327 222 -70 48 -131 83 -145 83 -14 0 -34 -10 -46 -23z"/>
<path d="M26856 20448 c-108 -73 -298 -202 -423 -287 -126 -85 -310 -210 -410
-278 l-183 -124 -1 38 -1 38 -11 -35 c-24 -73 -84 -116 -499 -353 -435 -250
-474 -269 -571 -293 l-67 -17 0 -68 c0 -67 1 -69 24 -69 64 0 191 55 407 178
207 118 229 128 250 116 22 -11 62 14 609 388 322 220 707 482 856 583 148
101 278 192 287 203 16 17 15 21 -16 65 -17 26 -37 47 -44 47 -6 0 -99 -60
-207 -132z"/>
<path d="M20315 20372 c-39 -14 -875 -513 -908 -542 -4 -4 -18 -58 -32 -121
-13 -63 -46 -204 -74 -314 -69 -273 -95 -447 -75 -498 4 -11 32 -4 137 39 318
128 662 197 1052 211 l180 6 33 111 c72 240 203 523 336 724 l72 108 -232 133
c-128 73 -249 139 -270 146 -54 20 -159 18 -219 -3z"/>
<path d="M13187 20211 c-28 -43 -34 -58 -24 -67 33 -31 985 -662 990 -657 4 3
40 17 80 32 l74 26 -541 361 -542 361 -37 -56z"/>
<path d="M15534 19960 c3 -94 22 -145 73 -191 24 -22 674 -399 688 -399 11 0
5 138 -7 148 -7 5 -159 94 -338 196 -334 192 -384 228 -408 298 -10 29 -11 22
-8 -52z"/>
<path d="M26676 19525 c-423 -283 -773 -518 -777 -522 -5 -5 13 -20 39 -34
l47 -26 298 174 c201 116 452 277 768 489 258 174 469 319 469 323 0 7 -51 83
-69 103 -4 4 -352 -224 -775 -507z"/>
<path d="M21111 19904 c-79 -120 -169 -290 -230 -438 -38 -91 -114 -317 -109
-321 2 -1 57 -7 123 -14 575 -60 1103 -280 1416 -590 210 -208 308 -414 312
-651 2 -122 -7 -170 -33 -170 -11 0 -20 -4 -20 -10 0 -6 -37 -10 -90 -10 -53
0 -90 -4 -90 -10 0 -5 -11 -10 -24 -10 -13 0 -27 -6 -29 -12 -4 -10 -6 -10 -6
0 -1 6 -12 12 -25 12 -13 0 -27 -6 -29 -12 -4 -10 -8 -9 -17 2 -9 11 -13 12
-17 3 -3 -9 -27 -13 -69 -13 -36 0 -64 -4 -64 -10 0 -5 -22 -10 -50 -10 -27 0
-50 -4 -50 -10 0 -5 -9 -10 -20 -10 -11 0 -20 5 -20 10 0 6 -7 10 -15 10 -8 0
-15 -4 -15 -10 0 -5 -22 -10 -50 -10 -27 0 -50 -4 -50 -10 0 -5 -20 -10 -45
-10 -25 0 -45 -4 -45 -10 0 -6 -38 -10 -95 -10 -69 0 -95 -3 -95 -12 0 -9 -4
-8 -11 2 -8 11 -12 12 -16 3 -2 -7 -20 -13 -39 -13 -25 0 -34 -4 -35 -17 0
-14 -2 -15 -6 -3 -4 8 -13 21 -21 29 -12 12 -15 12 -23 0 -5 -8 -9 -20 -9 -26
0 -9 -23 -13 -80 -13 -47 0 -80 -4 -80 -10 0 -5 -20 -10 -45 -10 -36 0 -45 -4
-46 -17 0 -15 -2 -15 -9 2 -7 17 -9 17 -9 3 -1 -22 -21 -24 -21 -3 0 8 -7 15
-15 15 -8 0 -15 -7 -15 -15 0 -21 -18 -19 -23 3 -4 16 -5 16 -6 0 -1 -15 -11
-18 -71 -18 -40 0 -70 -4 -70 -10 0 -5 -11 -10 -25 -10 -14 0 -25 -4 -25 -10
0 -5 -7 -10 -15 -10 -8 0 -15 5 -15 10 0 6 -11 10 -25 10 -14 0 -25 -4 -25
-10 0 -5 -22 -10 -50 -10 -27 0 -50 -4 -50 -10 0 -5 -7 -10 -15 -10 -8 0 -15
5 -15 10 0 6 -9 10 -20 10 -11 0 -20 -4 -20 -10 0 -5 -7 -10 -15 -10 -8 0 -15
-4 -15 -10 0 -5 -8 -10 -18 -10 -17 0 -19 13 -25 152 -4 83 -7 180 -7 215 l0
63 -80 0 c-47 0 -80 -4 -80 -10 0 -5 -22 -10 -50 -10 -27 0 -50 5 -50 10 0 6
-13 10 -30 10 -16 0 -30 -4 -30 -10 0 -5 -16 -10 -35 -10 -19 0 -35 -4 -35
-10 0 -6 -67 -10 -180 -10 -113 0 -180 -4 -180 -10 0 -6 -47 -10 -120 -10 -73
0 -120 -4 -120 -10 0 -6 -40 -10 -100 -10 -82 0 -100 -3 -100 -15 0 -10 -10
-15 -30 -15 -20 0 -30 5 -30 15 0 10 -11 15 -35 15 -24 0 -35 -5 -35 -15 0
-10 -11 -15 -35 -15 -19 0 -35 -4 -35 -10 0 -5 -13 -10 -30 -10 -16 0 -30 5
-30 10 0 6 -9 10 -20 10 -11 0 -20 -4 -20 -10 0 -6 -45 -10 -115 -10 -70 0
-115 -4 -115 -10 0 -5 -16 -10 -35 -10 -19 0 -35 -4 -35 -10 0 -5 -13 -10 -30
-10 -23 0 -30 4 -30 20 0 13 -7 20 -20 20 -11 0 -20 -4 -20 -10 0 -5 -13 -10
-30 -10 -16 0 -30 -4 -30 -10 0 -5 -16 -10 -35 -10 -19 0 -35 5 -35 10 0 15
-19 12 -38 -6 -15 -16 -14 -22 10 -90 47 -132 112 -227 248 -365 147 -148 280
-241 490 -343 264 -128 531 -205 865 -251 164 -23 538 -31 717 -16 724 62
1335 339 1637 742 66 87 135 223 153 299 7 29 18 54 25 57 7 3 13 14 13 24 0
10 7 19 15 19 11 0 15 -12 15 -45 0 -25 5 -45 10 -45 6 0 10 11 10 25 0 16 6
25 15 25 9 0 15 -9 15 -25 0 -20 5 -25 25 -25 20 0 25 5 25 25 0 16 6 25 15
25 9 0 15 -9 15 -21 0 -11 6 -27 14 -35 17 -16 56 -19 56 -4 0 6 11 10 25 10
18 0 25 -5 25 -20 0 -16 7 -20 34 -20 47 0 66 -9 66 -31 0 -16 8 -19 50 -19
47 0 50 -2 50 -25 0 -23 3 -25 50 -25 43 0 50 -3 50 -20 0 -15 7 -20 25 -20
14 0 25 5 25 10 0 6 6 10 14 10 15 0 26 -21 26 -51 0 -16 7 -19 45 -19 38 0
45 -3 45 -20 0 -17 7 -20 50 -20 47 0 50 -2 50 -25 0 -20 5 -25 25 -25 18 0
25 -5 25 -20 0 -27 18 -25 23 3 2 12 5 1 6 -25 1 -48 21 -69 21 -23 0 18 5 25
20 25 15 0 20 -7 20 -25 0 -23 3 -25 50 -25 42 0 50 -3 50 -19 0 -14 10 -20
38 -25 20 -3 42 -7 47 -8 9 -1 615 344 832 474 112 67 147 130 122 221 -15 56
-55 92 -189 169 -63 36 -668 385 -1345 775 -947 547 -1943 1120 -2047 1180 -4
2 -39 -45 -77 -103z"/>
<path d="M18845 19491 c-187 -115 -819 -500 -1405 -856 -586 -356 -1076 -657
-1088 -669 -37 -33 -54 -74 -54 -128 1 -61 24 -103 78 -141 l41 -28 309 187
c170 103 342 206 382 230 l72 43 0 -34 c0 -28 4 -35 20 -35 17 0 20 7 20 45 0
33 4 45 15 45 9 0 15 -9 15 -25 0 -21 5 -25 30 -25 25 0 30 4 30 25 0 18 5 25
20 25 15 0 20 -7 20 -25 0 -21 5 -25 30 -25 23 0 30 -4 30 -20 0 -16 7 -20 35
-20 28 0 35 4 35 20 0 16 7 20 35 20 27 0 35 -4 35 -19 0 -15 11 -19 68 -24
37 -4 95 -7 130 -7 55 0 62 -2 62 -20 0 -16 7 -20 35 -20 28 0 35 4 35 20 0
11 7 20 15 20 8 0 15 -9 15 -20 0 -16 7 -20 35 -20 31 0 35 -3 35 -25 0 -22 4
-25 35 -25 31 0 35 3 35 25 0 16 6 25 15 25 9 0 15 -9 15 -25 0 -25 0 -25 99
-25 96 0 100 -1 103 -22 3 -21 9 -23 69 -26 l66 -3 7 53 c17 132 80 290 163
406 94 134 304 325 441 402 41 23 42 24 34 64 -12 68 -6 235 12 331 10 50 42
185 72 301 56 217 59 234 47 233 -5 0 -161 -94 -348 -208z"/>
<path d="M13981 19139 c-1 -87 21 -158 63 -201 42 -43 858 -509 941 -536 33
-11 84 -25 113 -30 l52 -9 0 72 0 72 -77 16 c-43 9 -105 30 -138 46 -125 59
-852 484 -887 519 -21 19 -44 54 -52 76 l-14 41 -1 -66z"/>
<path d="M12206 18928 c-21 -32 -37 -60 -35 -62 2 -1 96 -59 209 -128 113 -69
406 -249 652 -401 l448 -276 69 43 69 42 -67 41 c-36 22 -298 182 -581 355
-283 173 -563 344 -621 380 l-105 65 -38 -59z"/>
<path d="M27357 18918 c-11 -21 -33 -49 -50 -62 -56 -42 -819 -479 -897 -512
-41 -18 -98 -36 -127 -40 l-53 -6 0 -75 0 -75 42 7 c23 4 71 18 108 30 69 24
897 489 937 527 44 41 64 100 61 176 l-3 69 -18 -39z"/>
<path d="M27902 18458 l-523 -321 66 -38 c37 -22 70 -39 75 -39 5 0 134 77
287 172 153 94 373 230 488 301 116 71 211 130 213 132 4 4 -72 114 -78 114
-3 0 -240 -145 -528 -321z"/>
<path d="M11228 17563 c-20 -32 -36 -58 -35 -59 1 -1 67 -42 147 -91 80 -49
321 -198 537 -331 215 -133 394 -242 397 -242 2 0 4 37 4 83 l-2 82 -254 155
c-140 85 -363 222 -496 304 -132 81 -245 150 -251 152 -5 2 -27 -22 -47 -53z"/>
<path d="M29113 17236 c-172 -106 -317 -196 -323 -202 -7 -7 -8 -36 -3 -86 l8
-75 350 217 350 216 3 37 c3 32 0 37 -17 37 -14 0 -21 6 -21 19 0 10 -8 21
-17 23 -11 3 -141 -70 -330 -186z"/>
<path d="M24200 16718 c-85 -50 -231 -134 -325 -188 -646 -371 -1737 -999
-2500 -1440 -358 -207 -658 -374 -695 -387 -88 -30 -192 -30 -280 0 -38 13
-371 199 -800 446 -404 234 -879 507 -1055 609 -813 468 -1081 622 -1222 703
l-153 87 0 -567 0 -567 333 -194 c1531 -890 2831 -1638 2882 -1659 86 -36 224
-36 310 0 51 21 706 396 1580 904 116 67 482 280 815 472 333 193 756 438 940
546 l335 195 3 566 c1 311 -1 566 -5 565 -5 0 -78 -41 -163 -91z"/>
<path d="M27112 15187 c-19 -53 -67 -96 -148 -133 -204 -95 -432 -108 -642
-39 -67 23 -127 53 -339 173 l-43 24 0 -74 0 -73 75 -43 c41 -24 75 -47 75
-51 0 -3 -133 -83 -295 -176 l-295 -169 53 -33 c73 -44 111 -113 105 -187 -9
-106 -61 -162 -210 -224 -117 -49 -222 -66 -363 -59 -66 3 -147 13 -180 22
-68 19 -198 77 -283 128 -31 19 -78 46 -104 61 l-48 27 0 -73 0 -74 74 -44
c41 -24 73 -46 71 -50 -2 -3 -136 -82 -298 -175 l-295 -170 64 -38 c82 -49
114 -100 114 -180 0 -31 -5 -68 -11 -84 -41 -111 -246 -200 -480 -210 -229
-10 -338 26 -665 219 l-34 20 0 -74 0 -74 65 -38 c36 -21 65 -41 65 -44 0 -4
-96 -62 -213 -129 -117 -66 -518 -298 -892 -514 -374 -216 -724 -412 -777
-436 -406 -180 -866 -200 -1282 -56 -149 51 -231 93 -546 275 -157 90 -549
317 -872 503 -324 186 -588 341 -588 344 0 4 34 26 75 49 l75 44 0 73 0 73
-156 -88 c-86 -48 -190 -99 -232 -113 -152 -51 -328 -58 -482 -21 -86 21 -238
94 -272 130 -28 30 -58 101 -58 138 0 73 49 147 127 193 l44 25 -300 171
c-165 94 -298 174 -295 178 2 4 42 28 89 55 l85 49 0 73 0 73 -77 -42 c-43
-23 -94 -52 -113 -64 -234 -146 -501 -179 -755 -94 -156 52 -224 104 -250 192
-21 71 -5 137 47 193 22 24 49 46 59 49 11 4 19 11 17 16 -2 5 -96 62 -211
128 l-207 120 2 -281 3 -281 175 -103 c96 -56 204 -119 240 -140 36 -20 335
-193 665 -384 330 -191 618 -358 640 -370 22 -13 56 -38 75 -56 34 -31 129
-83 180 -99 26 -8 259 -142 1590 -914 432 -250 848 -487 925 -526 545 -275
1196 -275 1742 -2 78 40 667 378 2165 1246 163 94 322 180 353 191 97 33 185
82 218 120 23 27 145 103 417 260 212 123 466 270 565 328 99 58 236 134 304
168 68 35 140 76 160 92 30 24 497 301 688 408 l53 29 0 151 0 151 63 -15 c40
-10 109 -16 197 -16 157 0 239 18 368 83 134 68 166 117 160 250 l-3 74 -13
-36z"/>
<path d="M15100 15159 c-253 -149 -341 -180 -535 -186 -166 -6 -266 13 -399
75 -81 39 -156 104 -156 138 0 8 -4 13 -9 10 -13 -8 -4 -139 12 -178 23 -54
62 -87 151 -129 134 -63 235 -82 396 -76 111 4 150 9 220 32 92 30 168 65 215
99 17 12 69 46 118 75 l87 52 0 70 c0 38 -3 69 -7 68 -5 0 -46 -23 -93 -50z"/>
<path d="M26170 14308 c-85 -50 -231 -134 -325 -188 -891 -512 -2756 -1586
-4090 -2355 -284 -164 -386 -213 -560 -270 -220 -73 -421 -105 -650 -105 -229
0 -430 32 -650 105 -192 63 -272 104 -815 417 -272 157 -736 424 -1030 593
-294 170 -616 355 -715 413 -99 58 -378 218 -620 357 -242 138 -525 301 -630
362 -455 263 -893 513 -899 513 -3 0 -6 -76 -6 -169 0 -143 2 -170 15 -175 14
-5 997 -574 1460 -844 357 -208 469 -273 524 -304 31 -17 182 -104 336 -193
1157 -670 1958 -1132 2055 -1187 202 -114 363 -175 592 -224 100 -21 161 -27
320 -31 339 -9 577 36 868 166 58 26 411 224 785 440 764 442 3830 2218 4058
2350 l147 86 0 167 c0 93 -3 168 -7 167 -5 0 -78 -41 -163 -91z"/>
<path d="M7830 14200 l0 -70 160 0 160 0 0 70 0 70 -160 0 -160 0 0 -70z"/>
<path d="M13409 14009 c-134 -78 -435 -252 -669 -387 -234 -134 -467 -270
-519 -300 -93 -55 -93 -55 -110 -34 -9 11 -162 109 -341 218 -416 253 -390
238 -390 226 0 -5 9 -12 20 -15 12 -3 20 -14 20 -26 0 -12 6 -21 14 -21 16 0
26 -21 26 -56 0 -17 6 -24 20 -24 13 0 20 -7 20 -20 0 -11 6 -20 13 -20 6 0
26 -22 44 -49 28 -43 56 -63 237 -172 113 -68 205 -127 206 -130 0 -3 -38 -27
-85 -53 l-86 -48 17 -27 c9 -14 27 -40 40 -58 l24 -31 877 502 c483 276 908
520 945 541 37 22 64 42 60 46 -4 3 -37 23 -73 42 l-65 37 -245 -141z"/>
<path d="M27355 14105 c-33 -19 -60 -40 -60 -47 0 -14 -23 1 665 -421 278
-170 583 -358 679 -417 l174 -108 73 111 c40 61 71 113 70 115 -2 1 -31 -13
-65 -33 -47 -28 -65 -34 -79 -26 -11 6 -120 73 -243 149 -840 521 -1150 712
-1152 712 -1 0 -29 -16 -62 -35z"/>
<path d="M26020 13739 c-173 -100 -765 -440 -1315 -757 -550 -316 -1130 -651
-1290 -742 -159 -92 -643 -371 -1075 -620 -432 -249 -825 -472 -874 -497 -189
-95 -424 -167 -651 -198 -149 -21 -471 -16 -610 9 -126 23 -269 61 -367 97
-188 69 -161 54 -2033 1134 -571 330 -819 473 -2120 1220 -247 142 -459 264
-470 271 -11 8 -23 14 -27 14 -5 0 -8 -89 -8 -198 l0 -198 40 -23 c22 -12 40
-25 40 -29 0 -4 -514 -314 -1143 -690 -628 -375 -1148 -687 -1156 -691 -12 -8
-8 -20 22 -65 21 -31 39 -56 41 -56 2 0 62 34 132 76 71 42 298 176 504 299
206 122 681 403 1055 625 374 222 687 405 696 407 9 3 101 -45 205 -105 275
-159 287 -166 288 -175 1 -4 -498 -293 -1109 -642 -610 -350 -1118 -645 -1127
-656 -10 -12 -18 -29 -18 -39 0 -29 39 -70 67 -70 14 0 156 75 326 171 1077
612 1514 861 1750 996 236 134 271 151 290 141 30 -15 579 -331 752 -433 77
-45 352 -204 610 -353 687 -395 1199 -692 1207 -700 3 -4 -204 -128 -460 -277
-256 -148 -562 -325 -678 -393 l-212 -123 -104 -3 c-57 -2 -787 -18 -1623 -36
-836 -19 -1521 -35 -1523 -36 -2 -1 16 -32 40 -68 l43 -66 110 0 c61 0 621 11
1245 24 1475 32 1542 33 1533 26 -5 -4 -53 -33 -108 -65 -55 -32 -154 -89
-220 -128 -153 -90 -726 -423 -1005 -584 -118 -69 -221 -132 -227 -141 -10
-12 -13 -137 -13 -546 l0 -531 70 -105 70 -105 0 605 1 605 87 49 c48 27 256
147 462 266 206 120 499 288 650 375 151 87 338 195 415 240 77 45 435 252
795 460 360 208 689 398 732 422 67 40 79 43 100 32 12 -6 214 -122 448 -257
234 -135 470 -267 525 -292 192 -90 384 -141 606 -160 68 -6 124 -12 125 -13
1 -1 -185 -110 -414 -242 -723 -417 -1236 -713 -1252 -723 -12 -8 -6 -14 30
-30 25 -12 59 -30 75 -41 l30 -19 130 75 c72 41 297 171 500 288 204 117 574
330 823 473 404 233 462 264 545 286 203 56 272 89 731 355 188 109 371 214
408 235 l67 37 249 -144 c137 -80 260 -148 273 -152 13 -4 40 -19 59 -34 19
-14 228 -138 465 -274 236 -137 433 -251 437 -255 4 -4 -183 -113 -415 -243
l-422 -236 -3 -81 c-2 -45 -1 -82 2 -82 2 0 226 124 498 276 l493 276 50 -27
c52 -28 856 -492 1405 -811 l315 -182 37 56 c20 32 33 60 30 64 -4 4 -254 150
-557 326 -551 319 -725 420 -2053 1192 -685 398 -713 415 -691 430 35 24 1480
859 1525 882 l41 20 949 -547 c522 -302 1008 -582 1079 -623 72 -41 230 -132
352 -203 122 -71 226 -129 231 -129 5 0 25 24 45 54 l36 55 -262 152 c-144 83
-410 238 -592 344 -181 105 -514 299 -740 430 -627 364 -940 546 -945 552 -6
5 -17 -2 205 128 99 57 186 105 194 105 7 0 39 -14 70 -32 70 -40 465 -266
1216 -698 886 -509 872 -502 902 -498 39 4 70 50 57 85 -10 29 11 16 -579 358
-159 92 -369 214 -465 270 -96 56 -372 215 -613 354 -241 140 -437 255 -435
256 3 3 771 447 898 520 47 26 89 48 95 48 5 0 195 -108 420 -240 226 -132
667 -390 980 -572 314 -183 580 -339 592 -347 20 -13 24 -11 57 44 19 31 31
61 27 65 -5 5 -136 84 -292 176 -156 91 -589 346 -961 565 l-677 400 77 46
c42 25 166 97 275 159 l197 114 0 198 c0 110 -1 199 -2 199 -2 0 -145 -82
-318 -181z"/>
<path d="M22270 9467 c-257 -145 -278 -163 -250 -214 11 -19 77 -63 210 -141
107 -62 214 -124 238 -138 l42 -25 0 83 0 83 -135 79 c-74 43 -135 82 -135 85
0 3 61 40 135 81 l135 75 0 82 c0 46 -1 83 -2 83 -2 -1 -109 -60 -238 -133z"/>
<path d="M22850 8836 l0 -82 188 -109 c166 -97 306 -177 670 -387 l102 -60 0
-906 0 -907 70 108 70 108 0 829 0 829 -22 24 c-13 13 -129 85 -258 160 -129
74 -367 212 -527 305 l-293 170 0 -82z"/>
</g>
</svg>
