<svg id="圖層_3" data-name="圖層 3" xmlns="http://www.w3.org/2000/svg" viewBox="0 0 679.21 548"><defs><style>.cls-1{fill:none;stroke-width:30px;}.cls-1,.cls-2,.cls-3{stroke:#000;stroke-miterlimit:10;}.cls-2{stroke-width:10px;}.cls-3{stroke-width:4px;}</style></defs><title>howAI icon2</title><path class="cls-1" d="M527,310.6V486.08A51.93,51.93,0,0,1,475.08,538h-402a51.93,51.93,0,0,1-51.92-51.92V219.92A51.93,51.93,0,0,1,73.06,168H213.85" transform="translate(-6.14 -5)"/><path class="cls-1" d="M445,367" transform="translate(-6.14 -5)"/><path class="cls-1" d="M290,342" transform="translate(-6.14 -5)"/><path d="M383.5,35A167.5,167.5,0,0,1,501.94,320.94,167.5,167.5,0,1,1,265.06,84.06,166.4,166.4,0,0,1,383.5,35m0-30A196.85,196.85,0,0,0,243.85,62.85c-77.13,77.13-77.13,202.18,0,279.3a197.48,197.48,0,0,0,279.3,0c77.13-77.12,77.13-202.18,0-279.3A196.85,196.85,0,0,0,383.5,5Z" transform="translate(-6.14 -5)"/><path d="M674.47,493.47h0c-12.69,12.7-31.41,14.55-41.81,4.15L509.81,374.77,492.14,357.1,514,333h0l23.56-22.4,18.25,18.25L678.62,451.66C689,462.06,687.17,480.78,674.47,493.47Z" transform="translate(-6.14 -5)"/><path class="cls-2" d="M173.59,407.69l-67.31,33.69a6.14,6.14,0,0,1-8.89-5.49v-.13a6.13,6.13,0,0,1,3.4-5.49L146,407.76a6.14,6.14,0,0,0,0-11L100.77,374a6.13,6.13,0,0,1-3.38-5.48h0a6.14,6.14,0,0,1,8.89-5.49l67.31,33.69A6.13,6.13,0,0,1,173.59,407.69Z" transform="translate(-6.14 -5)"/><path class="cls-2" d="M196,452.13V452a6.14,6.14,0,0,1,6.14-6.14h74.9a6.14,6.14,0,0,1,6.14,6.14v.16a6.14,6.14,0,0,1-6.14,6.14h-74.9A6.14,6.14,0,0,1,196,452.13Z" transform="translate(-6.14 -5)"/><path class="cls-3" d="M280.66,281.37H270a4.29,4.29,0,0,1-4.1-5.55L311.72,127a4.3,4.3,0,0,1,4.1-3h14.44a4.27,4.27,0,0,1,4.09,3l46.11,148.8a4.29,4.29,0,0,1-4.1,5.55H363.74a4.29,4.29,0,0,1-4.1-3l-8.87-28.55a4.28,4.28,0,0,0-4.09-3h-49a4.3,4.3,0,0,0-4.1,3l-8.82,28.53A4.27,4.27,0,0,1,280.66,281.37Zm24.51-50.29H339.4a4.29,4.29,0,0,0,4.09-5.59l-17.2-54.13-.06-.22a4.29,4.29,0,0,0-8.29.1h0a2.17,2.17,0,0,1-.07.24l-16.79,54A4.28,4.28,0,0,0,305.17,231.08Z" transform="translate(-6.14 -5)"/><path class="cls-3" d="M411.59,277.09v-7.15a4.29,4.29,0,0,1,4.28-4.29h26a4.28,4.28,0,0,0,4.28-4.28V144a4.28,4.28,0,0,0-4.28-4.28h-26a4.29,4.29,0,0,1-4.28-4.29v-7.14a4.29,4.29,0,0,1,4.28-4.29h81.07a4.29,4.29,0,0,1,4.28,4.29v7.14a4.29,4.29,0,0,1-4.28,4.29h-26a4.28,4.28,0,0,0-4.28,4.28V261.37a4.28,4.28,0,0,0,4.28,4.28h26a4.29,4.29,0,0,1,4.28,4.29v7.15a4.28,4.28,0,0,1-4.28,4.28H415.87A4.28,4.28,0,0,1,411.59,277.09Z" transform="translate(-6.14 -5)"/></svg>