<?xml version="1.0" standalone="no"?>
<!DOCTYPE svg PUBLIC "-//W3C//DTD SVG 20010904//EN"
 "http://www.w3.org/TR/2001/REC-SVG-20010904/DTD/svg10.dtd">
<svg version="1.0" xmlns="http://www.w3.org/2000/svg"
 width="2831.000000pt" height="2285.000000pt" viewBox="0 0 2831.000000 2285.000000"
 preserveAspectRatio="xMidYMid meet">
<metadata>
Created by potrace 1.16, written by Peter Selinger 2001-2019
</metadata>
<g transform="translate(0.000000,2285.000000) scale(0.100000,-0.100000)"
fill="#000000" stroke="none">
<path d="M15460 22844 c-2101 -71 -4069 -925 -5555 -2409 -1000 -1000 -1710
-2209 -2095 -3567 l-53 -188 -2528 0 c-1720 0 -2569 -3 -2656 -11 -1037 -87
-1932 -725 -2341 -1670 -102 -235 -180 -528 -214 -799 -11 -85 -13 -1191 -13
-5870 0 -5480 1 -5771 18 -5890 47 -330 125 -584 267 -875 309 -631 827 -1108
1485 -1368 286 -113 538 -167 868 -187 222 -13 16832 -13 17054 0 518 32 973
182 1389 458 185 124 302 222 469 393 455 468 723 1071 775 1749 6 73 10 821
10 1798 l0 1673 1923 -1925 c1783 -1786 1928 -1928 2007 -1975 179 -108 326
-146 560 -146 229 0 390 39 605 146 427 211 742 606 846 1059 26 112 35 319
20 434 -20 149 -81 312 -164 436 -16 25 -1305 1321 -2865 2881 -1559 1560
-2833 2841 -2831 2846 2 5 58 90 125 188 800 1188 1248 2481 1376 3970 8 97
13 320 13 630 -1 501 -8 628 -56 1015 -208 1676 -929 3247 -2065 4500 -151
167 -510 521 -664 656 -1386 1212 -3073 1911 -4905 2033 -169 12 -646 20 -805
15z m910 -1278 c1194 -122 2240 -489 3195 -1121 1055 -697 1940 -1710 2467
-2824 782 -1653 893 -3531 309 -5252 -652 -1924 -2128 -3480 -4021 -4239 -570
-228 -1205 -386 -1825 -454 -491 -54 -1049 -54 -1535 0 -1310 145 -2542 652
-3562 1466 -236 188 -378 316 -613 552 -906 910 -1519 1992 -1830 3235 -384
1534 -221 3221 448 4636 258 545 581 1054 952 1498 1248 1494 2957 2372 4900
2516 190 15 933 6 1115 -13z m-8844 -6228 c-21 -267 -26 -418 -26 -724 -1
-465 19 -757 80 -1184 211 -1480 841 -2908 1784 -4045 338 -407 753 -822 1136
-1136 846 -693 1799 -1204 2825 -1514 586 -177 1139 -280 1790 -335 213 -18
796 -24 1035 -11 1173 65 2245 347 3270 860 334 167 540 288 874 509 l218 145
284 -284 284 -284 -2 -2360 -3 -2360 -23 -108 c-104 -490 -392 -868 -828
-1086 -167 -84 -329 -130 -526 -151 -127 -13 -16929 -13 -17056 0 -191 20
-357 67 -518 146 -439 215 -750 624 -842 1107 -16 87 -17 413 -17 5827 l0
5735 23 105 c13 58 34 139 48 180 37 113 134 304 205 405 79 111 247 281 355
358 199 140 465 246 699 276 39 5 1137 9 2504 10 l2434 1 -7 -82z"/>
<path d="M13009 17961 c-185 -6 -186 -6 -235 -36 -26 -17 -61 -48 -76 -70 -21
-30 -262 -799 -989 -3160 -529 -1716 -964 -3143 -967 -3170 -9 -106 43 -200
137 -247 l55 -28 288 0 c222 0 296 3 322 14 46 19 104 72 126 117 11 20 61
169 111 331 50 161 135 434 189 606 76 244 103 320 123 340 l26 25 1055 1
1055 1 27 -27 c22 -21 58 -126 200 -585 96 -307 184 -588 196 -626 25 -80 78
-145 141 -176 41 -20 59 -21 373 -21 324 0 330 1 379 24 85 39 135 113 142
211 4 53 -3 87 -72 310 -482 1570 -1862 6008 -1876 6036 -21 43 -79 95 -128
117 -41 18 -276 23 -602 13z m225 -2021 c21 -20 41 -83 355 -1070 402 -1265
403 -1269 394 -1297 -5 -15 -22 -36 -37 -47 -27 -21 -36 -21 -773 -21 l-745 0
-29 33 c-16 18 -29 42 -29 53 0 29 709 2309 727 2337 28 45 98 51 137 12z"/>
<path d="M17315 17960 c-318 -5 -320 -5 -365 -30 -52 -29 -105 -95 -120 -148
-15 -56 -12 -418 4 -465 20 -55 61 -103 114 -134 l47 -28 603 -5 604 -5 29
-33 29 -32 0 -2468 c0 -1952 -3 -2472 -13 -2492 -7 -14 -28 -33 -47 -42 -32
-17 -83 -18 -605 -18 -450 -1 -578 -4 -608 -14 -55 -20 -103 -61 -134 -114
l-28 -47 0 -230 c0 -217 1 -232 22 -270 28 -52 68 -89 123 -114 45 -20 56 -21
1798 -21 1947 0 1789 -6 1866 68 71 68 76 89 76 335 0 248 -6 274 -82 343 -74
66 -48 64 -681 64 -384 0 -584 4 -605 11 -67 23 -62 -201 -62 2534 0 2735 -5
2511 62 2534 21 7 221 11 602 11 l571 0 50 24 c56 25 107 78 130 133 22 52 22
448 0 501 -20 47 -78 107 -130 135 l-40 22 -1445 0 c-795 1 -1589 -2 -1765 -5z"/>
<path d="M3918 8141 c-76 -25 -148 -72 -204 -134 -81 -90 -114 -179 -114 -307
0 -167 68 -303 194 -389 23 -16 474 -245 1004 -511 950 -476 962 -482 962
-512 0 -29 -11 -35 -982 -517 -1042 -518 -1041 -517 -1108 -621 -70 -109 -91
-280 -52 -408 73 -232 325 -370 565 -307 32 8 672 323 1507 740 1413 707 1452
727 1509 784 188 188 183 486 -12 673 -43 42 -228 137 -1485 768 -789 396
-1461 729 -1493 740 -77 26 -211 26 -291 1z"/>
<path d="M8074 4675 c-85 -18 -158 -58 -224 -121 -105 -100 -145 -208 -138
-371 4 -93 8 -109 41 -176 66 -133 201 -234 343 -257 80 -13 3198 -13 3278 0
86 14 178 61 245 125 105 100 146 208 139 364 -8 156 -54 247 -173 343 -64 52
-138 85 -225 99 -31 5 -734 9 -1640 8 -1277 0 -1597 -3 -1646 -14z"/>
</g>
</svg>
